<?xml version="1.0" standalone="no"?>
<!DOCTYPE svg PUBLIC "-//W3C//DTD SVG 20010904//EN"
 "http://www.w3.org/TR/2001/REC-SVG-20010904/DTD/svg10.dtd">
<svg version="1.0" xmlns="http://www.w3.org/2000/svg"
 width="70.000000pt" height="70.000000pt" viewBox="0 0 70.000000 70.000000"
 preserveAspectRatio="xMidYMid meet">
<metadata>
Created by potrace 1.14, written by Peter Selinger 2001-2017
</metadata>
<g transform="translate(0.000000,70.000000) scale(0.100000,-0.100000)"
fill="#000000" stroke="none">
<path d="M131 352 c-28 -81 -51 -151 -51 -155 0 -4 11 -7 26 -7 19 0 28 8 40
35 14 34 15 35 73 35 59 0 59 0 71 -36 10 -29 16 -35 36 -32 14 2 25 5 26 8 1
3 -20 71 -47 153 l-50 147 -36 0 -36 0 -52 -148z m113 14 c9 -27 16 -51 16
-53 0 -2 -18 -3 -40 -3 -22 0 -40 3 -40 7 0 21 35 112 41 106 3 -5 14 -30 23
-57z"/>
<path d="M429 487 c-21 -16 -39 -51 -39 -76 0 -33 41 -70 100 -89 43 -15 56
-24 58 -42 7 -46 -57 -55 -99 -14 -19 18 -33 24 -48 19 -28 -9 -26 -21 7 -55
66 -65 182 -44 198 36 8 41 -30 86 -88 103 -24 7 -49 18 -55 23 -21 17 -15 48
10 57 26 10 45 5 73 -21 32 -28 70 -6 46 28 -28 40 -126 59 -163 31z"/>
</g>
</svg>
